<mxfile host="app.diagrams.net" modified="2024-04-02T02:29:53.845Z" agent="Mozilla/5.0 (Windows NT 10.0; Win64; x64) AppleWebKit/537.36 (KHTML, like Gecko) Chrome/123.0.0.0 Safari/537.36" etag="RK2B488ViOxdOygu6GNI" version="24.2.1" type="device">
  <diagram name="페이지-1" id="stMyEYggoGqHJ9Gl1buh">
    <mxGraphModel dx="2261" dy="780" grid="1" gridSize="10" guides="1" tooltips="1" connect="1" arrows="1" fold="1" page="1" pageScale="1" pageWidth="827" pageHeight="1169" math="0" shadow="0">
      <root>
        <mxCell id="0" />
        <mxCell id="1" parent="0" />
        <mxCell id="ibAcx1b-cuIIom6eMJPG-1" value="&lt;span style=&quot;font-size: 16px;&quot;&gt;&lt;b&gt;notice&lt;/b&gt;&lt;/span&gt;&lt;div&gt;&lt;span style=&quot;font-size: 16px;&quot;&gt;&lt;b&gt;(공지사항)&lt;/b&gt;&lt;/span&gt;&lt;/div&gt;" style="rounded=0;whiteSpace=wrap;html=1;" vertex="1" parent="1">
          <mxGeometry x="-46" y="320" width="120" height="60" as="geometry" />
        </mxCell>
        <mxCell id="ibAcx1b-cuIIom6eMJPG-2" value="&lt;u&gt;&lt;font color=&quot;#ff0000&quot;&gt;no&lt;/font&gt;&lt;/u&gt;&lt;div&gt;&lt;u&gt;&lt;font color=&quot;#ff0000&quot;&gt;(글번호)&lt;/font&gt;&lt;/u&gt;&lt;/div&gt;" style="ellipse;whiteSpace=wrap;html=1;" vertex="1" parent="1">
          <mxGeometry x="-280" y="425" width="100" height="50" as="geometry" />
        </mxCell>
        <mxCell id="ibAcx1b-cuIIom6eMJPG-3" value="title&lt;div&gt;(글제목)&lt;/div&gt;" style="ellipse;whiteSpace=wrap;html=1;" vertex="1" parent="1">
          <mxGeometry x="-160" y="425" width="100" height="50" as="geometry" />
        </mxCell>
        <mxCell id="ibAcx1b-cuIIom6eMJPG-4" value="content&lt;div&gt;(글내용)&lt;/div&gt;" style="ellipse;whiteSpace=wrap;html=1;" vertex="1" parent="1">
          <mxGeometry x="-36.5" y="425" width="100" height="50" as="geometry" />
        </mxCell>
        <mxCell id="ibAcx1b-cuIIom6eMJPG-5" value="resdate&lt;div&gt;(작성일시)&lt;/div&gt;" style="ellipse;whiteSpace=wrap;html=1;" vertex="1" parent="1">
          <mxGeometry x="90" y="425" width="100" height="50" as="geometry" />
        </mxCell>
        <mxCell id="ibAcx1b-cuIIom6eMJPG-6" value="visited&lt;div&gt;(읽은횟수)&lt;/div&gt;" style="ellipse;whiteSpace=wrap;html=1;" vertex="1" parent="1">
          <mxGeometry x="220" y="425" width="100" height="50" as="geometry" />
        </mxCell>
        <mxCell id="ibAcx1b-cuIIom6eMJPG-7" value="" style="endArrow=classic;html=1;rounded=0;exitX=0.5;exitY=1;exitDx=0;exitDy=0;entryX=0.5;entryY=0;entryDx=0;entryDy=0;" edge="1" parent="1" source="ibAcx1b-cuIIom6eMJPG-1" target="ibAcx1b-cuIIom6eMJPG-2">
          <mxGeometry width="50" height="50" relative="1" as="geometry">
            <mxPoint x="-180" y="360" as="sourcePoint" />
            <mxPoint x="-130" y="310" as="targetPoint" />
          </mxGeometry>
        </mxCell>
        <mxCell id="ibAcx1b-cuIIom6eMJPG-8" value="" style="endArrow=classic;html=1;rounded=0;exitX=0.5;exitY=1;exitDx=0;exitDy=0;entryX=0.5;entryY=0;entryDx=0;entryDy=0;" edge="1" parent="1" source="ibAcx1b-cuIIom6eMJPG-1" target="ibAcx1b-cuIIom6eMJPG-3">
          <mxGeometry width="50" height="50" relative="1" as="geometry">
            <mxPoint x="-220" y="340" as="sourcePoint" />
            <mxPoint x="-170" y="290" as="targetPoint" />
          </mxGeometry>
        </mxCell>
        <mxCell id="ibAcx1b-cuIIom6eMJPG-9" value="" style="endArrow=classic;html=1;rounded=0;exitX=0.5;exitY=1;exitDx=0;exitDy=0;entryX=0.5;entryY=0;entryDx=0;entryDy=0;" edge="1" parent="1" source="ibAcx1b-cuIIom6eMJPG-1" target="ibAcx1b-cuIIom6eMJPG-4">
          <mxGeometry width="50" height="50" relative="1" as="geometry">
            <mxPoint x="-110" y="360" as="sourcePoint" />
            <mxPoint x="-60" y="310" as="targetPoint" />
          </mxGeometry>
        </mxCell>
        <mxCell id="ibAcx1b-cuIIom6eMJPG-10" value="" style="endArrow=classic;html=1;rounded=0;exitX=0.5;exitY=1;exitDx=0;exitDy=0;entryX=0.5;entryY=0;entryDx=0;entryDy=0;" edge="1" parent="1" source="ibAcx1b-cuIIom6eMJPG-1" target="ibAcx1b-cuIIom6eMJPG-5">
          <mxGeometry width="50" height="50" relative="1" as="geometry">
            <mxPoint x="-150" y="330" as="sourcePoint" />
            <mxPoint x="-100" y="280" as="targetPoint" />
          </mxGeometry>
        </mxCell>
        <mxCell id="ibAcx1b-cuIIom6eMJPG-11" value="" style="endArrow=classic;html=1;rounded=0;exitX=0.5;exitY=1;exitDx=0;exitDy=0;entryX=0.5;entryY=0;entryDx=0;entryDy=0;" edge="1" parent="1" source="ibAcx1b-cuIIom6eMJPG-1" target="ibAcx1b-cuIIom6eMJPG-6">
          <mxGeometry width="50" height="50" relative="1" as="geometry">
            <mxPoint x="-170" y="350" as="sourcePoint" />
            <mxPoint x="-120" y="300" as="targetPoint" />
          </mxGeometry>
        </mxCell>
        <mxCell id="ibAcx1b-cuIIom6eMJPG-12" value="&lt;font style=&quot;font-size: 16px;&quot;&gt;&lt;b&gt;traffic&lt;/b&gt;&lt;/font&gt;&lt;div&gt;&lt;span style=&quot;font-size: 16px;&quot;&gt;&lt;b&gt;(교통편)&lt;/b&gt;&lt;/span&gt;&lt;/div&gt;" style="rounded=0;whiteSpace=wrap;html=1;" vertex="1" parent="1">
          <mxGeometry x="-50" y="60" width="120" height="60" as="geometry" />
        </mxCell>
        <mxCell id="ibAcx1b-cuIIom6eMJPG-13" value="t_type&lt;div&gt;(종류)&lt;/div&gt;" style="ellipse;whiteSpace=wrap;html=1;" vertex="1" parent="1">
          <mxGeometry x="-160" y="160" width="100" height="50" as="geometry" />
        </mxCell>
        <mxCell id="ibAcx1b-cuIIom6eMJPG-14" value="no&lt;div&gt;(번호)&lt;/div&gt;" style="ellipse;whiteSpace=wrap;html=1;" vertex="1" parent="1">
          <mxGeometry x="-40" y="160" width="100" height="50" as="geometry" />
        </mxCell>
        <mxCell id="ibAcx1b-cuIIom6eMJPG-15" value="route&lt;div&gt;(노선도)&lt;/div&gt;" style="ellipse;whiteSpace=wrap;html=1;" vertex="1" parent="1">
          <mxGeometry x="80" y="160" width="100" height="50" as="geometry" />
        </mxCell>
        <mxCell id="ibAcx1b-cuIIom6eMJPG-16" value="coment&lt;div&gt;(설명)&lt;/div&gt;" style="ellipse;whiteSpace=wrap;html=1;" vertex="1" parent="1">
          <mxGeometry x="200" y="160" width="100" height="50" as="geometry" />
        </mxCell>
        <mxCell id="ibAcx1b-cuIIom6eMJPG-17" value="" style="endArrow=classic;html=1;rounded=0;exitX=0.5;exitY=1;exitDx=0;exitDy=0;entryX=0.5;entryY=0;entryDx=0;entryDy=0;" edge="1" parent="1" source="ibAcx1b-cuIIom6eMJPG-12" target="ibAcx1b-cuIIom6eMJPG-13">
          <mxGeometry width="50" height="50" relative="1" as="geometry">
            <mxPoint x="-150" y="115" as="sourcePoint" />
            <mxPoint x="-100" y="65" as="targetPoint" />
          </mxGeometry>
        </mxCell>
        <mxCell id="ibAcx1b-cuIIom6eMJPG-18" value="" style="endArrow=classic;html=1;rounded=0;exitX=0.5;exitY=1;exitDx=0;exitDy=0;entryX=0.5;entryY=0;entryDx=0;entryDy=0;" edge="1" parent="1" source="ibAcx1b-cuIIom6eMJPG-12" target="ibAcx1b-cuIIom6eMJPG-14">
          <mxGeometry width="50" height="50" relative="1" as="geometry">
            <mxPoint x="160" y="250" as="sourcePoint" />
            <mxPoint x="210" y="200" as="targetPoint" />
          </mxGeometry>
        </mxCell>
        <mxCell id="ibAcx1b-cuIIom6eMJPG-19" value="" style="endArrow=classic;html=1;rounded=0;exitX=0.45;exitY=0.983;exitDx=0;exitDy=0;exitPerimeter=0;entryX=0.5;entryY=0;entryDx=0;entryDy=0;" edge="1" parent="1" source="ibAcx1b-cuIIom6eMJPG-12" target="ibAcx1b-cuIIom6eMJPG-15">
          <mxGeometry width="50" height="50" relative="1" as="geometry">
            <mxPoint x="160" y="350" as="sourcePoint" />
            <mxPoint x="210" y="300" as="targetPoint" />
          </mxGeometry>
        </mxCell>
        <mxCell id="ibAcx1b-cuIIom6eMJPG-20" value="" style="endArrow=classic;html=1;rounded=0;exitX=0.5;exitY=1;exitDx=0;exitDy=0;entryX=0.5;entryY=0;entryDx=0;entryDy=0;" edge="1" parent="1" source="ibAcx1b-cuIIom6eMJPG-12" target="ibAcx1b-cuIIom6eMJPG-16">
          <mxGeometry width="50" height="50" relative="1" as="geometry">
            <mxPoint x="160" y="350" as="sourcePoint" />
            <mxPoint x="210" y="300" as="targetPoint" />
          </mxGeometry>
        </mxCell>
        <mxCell id="ibAcx1b-cuIIom6eMJPG-21" value="&lt;u&gt;&lt;font color=&quot;#ff0000&quot;&gt;tno&lt;/font&gt;&lt;/u&gt;&lt;div&gt;&lt;u&gt;&lt;font color=&quot;#ff0000&quot;&gt;(연번)&lt;/font&gt;&lt;/u&gt;&lt;/div&gt;" style="ellipse;whiteSpace=wrap;html=1;" vertex="1" parent="1">
          <mxGeometry x="-280" y="160" width="100" height="50" as="geometry" />
        </mxCell>
        <mxCell id="ibAcx1b-cuIIom6eMJPG-22" value="&lt;span style=&quot;font-size: 16px;&quot;&gt;&lt;b&gt;guide&lt;/b&gt;&lt;/span&gt;&lt;div&gt;&lt;span style=&quot;font-size: 16px;&quot;&gt;&lt;b&gt;(안내사항)&lt;/b&gt;&lt;/span&gt;&lt;/div&gt;" style="rounded=0;whiteSpace=wrap;html=1;" vertex="1" parent="1">
          <mxGeometry x="854" y="40" width="120" height="60" as="geometry" />
        </mxCell>
        <mxCell id="ibAcx1b-cuIIom6eMJPG-23" value="&lt;font color=&quot;#ff0000&quot;&gt;&lt;u&gt;pcode&lt;/u&gt;&lt;/font&gt;&lt;div&gt;&lt;font color=&quot;#ff0000&quot;&gt;&lt;u&gt;(장소코드)&lt;/u&gt;&lt;/font&gt;&lt;/div&gt;" style="ellipse;whiteSpace=wrap;html=1;" vertex="1" parent="1">
          <mxGeometry x="450" y="160" width="100" height="50" as="geometry" />
        </mxCell>
        <mxCell id="ibAcx1b-cuIIom6eMJPG-24" value="pname&lt;div&gt;(장소이름)&lt;/div&gt;" style="ellipse;whiteSpace=wrap;html=1;" vertex="1" parent="1">
          <mxGeometry x="570" y="160" width="100" height="50" as="geometry" />
        </mxCell>
        <mxCell id="ibAcx1b-cuIIom6eMJPG-25" value="ptype&lt;div&gt;(장소종류)&lt;/div&gt;" style="ellipse;whiteSpace=wrap;html=1;" vertex="1" parent="1">
          <mxGeometry x="690" y="160" width="100" height="50" as="geometry" />
        </mxCell>
        <mxCell id="ibAcx1b-cuIIom6eMJPG-26" value="paddr&lt;div&gt;(장소주소)&lt;/div&gt;" style="ellipse;whiteSpace=wrap;html=1;" vertex="1" parent="1">
          <mxGeometry x="810" y="160" width="100" height="50" as="geometry" />
        </mxCell>
        <mxCell id="ibAcx1b-cuIIom6eMJPG-27" value="ptel&lt;div&gt;(장소연락처)&lt;/div&gt;" style="ellipse;whiteSpace=wrap;html=1;" vertex="1" parent="1">
          <mxGeometry x="930" y="160" width="100" height="50" as="geometry" />
        </mxCell>
        <mxCell id="ibAcx1b-cuIIom6eMJPG-28" value="pgps&lt;div&gt;(장소GPS값)&lt;/div&gt;" style="ellipse;whiteSpace=wrap;html=1;" vertex="1" parent="1">
          <mxGeometry x="1050" y="160" width="100" height="50" as="geometry" />
        </mxCell>
        <mxCell id="ibAcx1b-cuIIom6eMJPG-29" value="pcoment&lt;div&gt;(장소설명)&lt;/div&gt;" style="ellipse;whiteSpace=wrap;html=1;" vertex="1" parent="1">
          <mxGeometry x="1167" y="160" width="100" height="50" as="geometry" />
        </mxCell>
        <mxCell id="ibAcx1b-cuIIom6eMJPG-30" value="premark&lt;div&gt;(참고사항)&lt;/div&gt;" style="ellipse;whiteSpace=wrap;html=1;" vertex="1" parent="1">
          <mxGeometry x="1290" y="160" width="100" height="50" as="geometry" />
        </mxCell>
        <mxCell id="ibAcx1b-cuIIom6eMJPG-31" value="" style="endArrow=classic;html=1;rounded=0;exitX=0.5;exitY=1;exitDx=0;exitDy=0;entryX=0.5;entryY=0;entryDx=0;entryDy=0;" edge="1" parent="1" source="ibAcx1b-cuIIom6eMJPG-22" target="ibAcx1b-cuIIom6eMJPG-23">
          <mxGeometry width="50" height="50" relative="1" as="geometry">
            <mxPoint x="680" y="100" as="sourcePoint" />
            <mxPoint x="730" y="50" as="targetPoint" />
          </mxGeometry>
        </mxCell>
        <mxCell id="ibAcx1b-cuIIom6eMJPG-32" value="" style="endArrow=classic;html=1;rounded=0;exitX=0.5;exitY=1;exitDx=0;exitDy=0;entryX=0.5;entryY=0;entryDx=0;entryDy=0;" edge="1" parent="1" source="ibAcx1b-cuIIom6eMJPG-22" target="ibAcx1b-cuIIom6eMJPG-24">
          <mxGeometry width="50" height="50" relative="1" as="geometry">
            <mxPoint x="680" y="50" as="sourcePoint" />
            <mxPoint x="730" as="targetPoint" />
          </mxGeometry>
        </mxCell>
        <mxCell id="ibAcx1b-cuIIom6eMJPG-33" value="" style="endArrow=classic;html=1;rounded=0;entryX=0.5;entryY=0;entryDx=0;entryDy=0;" edge="1" parent="1" target="ibAcx1b-cuIIom6eMJPG-25">
          <mxGeometry width="50" height="50" relative="1" as="geometry">
            <mxPoint x="910" y="100" as="sourcePoint" />
            <mxPoint x="730" as="targetPoint" />
          </mxGeometry>
        </mxCell>
        <mxCell id="ibAcx1b-cuIIom6eMJPG-34" value="" style="endArrow=classic;html=1;rounded=0;exitX=0.5;exitY=1;exitDx=0;exitDy=0;entryX=0.5;entryY=0;entryDx=0;entryDy=0;" edge="1" parent="1" source="ibAcx1b-cuIIom6eMJPG-22" target="ibAcx1b-cuIIom6eMJPG-26">
          <mxGeometry width="50" height="50" relative="1" as="geometry">
            <mxPoint x="580" y="80" as="sourcePoint" />
            <mxPoint x="630" y="30" as="targetPoint" />
          </mxGeometry>
        </mxCell>
        <mxCell id="ibAcx1b-cuIIom6eMJPG-35" value="" style="endArrow=classic;html=1;rounded=0;exitX=0.5;exitY=1;exitDx=0;exitDy=0;entryX=0.5;entryY=0;entryDx=0;entryDy=0;" edge="1" parent="1" source="ibAcx1b-cuIIom6eMJPG-22" target="ibAcx1b-cuIIom6eMJPG-27">
          <mxGeometry width="50" height="50" relative="1" as="geometry">
            <mxPoint x="590" y="60" as="sourcePoint" />
            <mxPoint x="640" y="10" as="targetPoint" />
          </mxGeometry>
        </mxCell>
        <mxCell id="ibAcx1b-cuIIom6eMJPG-36" value="" style="endArrow=classic;html=1;rounded=0;exitX=0.5;exitY=1;exitDx=0;exitDy=0;entryX=0.5;entryY=0;entryDx=0;entryDy=0;" edge="1" parent="1" source="ibAcx1b-cuIIom6eMJPG-22" target="ibAcx1b-cuIIom6eMJPG-28">
          <mxGeometry width="50" height="50" relative="1" as="geometry">
            <mxPoint x="650" y="80" as="sourcePoint" />
            <mxPoint x="700" y="30" as="targetPoint" />
          </mxGeometry>
        </mxCell>
        <mxCell id="ibAcx1b-cuIIom6eMJPG-37" value="" style="endArrow=classic;html=1;rounded=0;exitX=0.5;exitY=1;exitDx=0;exitDy=0;entryX=0.5;entryY=0;entryDx=0;entryDy=0;" edge="1" parent="1" source="ibAcx1b-cuIIom6eMJPG-22" target="ibAcx1b-cuIIom6eMJPG-29">
          <mxGeometry width="50" height="50" relative="1" as="geometry">
            <mxPoint x="650" y="30" as="sourcePoint" />
            <mxPoint x="700" y="-20" as="targetPoint" />
          </mxGeometry>
        </mxCell>
        <mxCell id="ibAcx1b-cuIIom6eMJPG-38" value="" style="endArrow=classic;html=1;rounded=0;exitX=0.5;exitY=1;exitDx=0;exitDy=0;entryX=0.5;entryY=0;entryDx=0;entryDy=0;" edge="1" parent="1" source="ibAcx1b-cuIIom6eMJPG-22" target="ibAcx1b-cuIIom6eMJPG-30">
          <mxGeometry width="50" height="50" relative="1" as="geometry">
            <mxPoint x="570" y="40" as="sourcePoint" />
            <mxPoint x="620" y="-10" as="targetPoint" />
          </mxGeometry>
        </mxCell>
        <mxCell id="ibAcx1b-cuIIom6eMJPG-39" value="&lt;span style=&quot;font-size: 16px;&quot;&gt;&lt;b&gt;qna&lt;/b&gt;&lt;/span&gt;&lt;div&gt;&lt;span style=&quot;font-size: 16px;&quot;&gt;&lt;b&gt;(묻고 답하기)&lt;/b&gt;&lt;/span&gt;&lt;/div&gt;" style="rounded=0;whiteSpace=wrap;html=1;" vertex="1" parent="1">
          <mxGeometry x="853.5" y="760" width="120" height="60" as="geometry" />
        </mxCell>
        <mxCell id="ibAcx1b-cuIIom6eMJPG-40" value="&lt;font color=&quot;#ff0000&quot;&gt;&lt;u&gt;no&lt;/u&gt;&lt;/font&gt;&lt;div&gt;&lt;font color=&quot;#ff0000&quot;&gt;&lt;u&gt;(글번호)&lt;/u&gt;&lt;/font&gt;&lt;/div&gt;" style="ellipse;whiteSpace=wrap;html=1;" vertex="1" parent="1">
          <mxGeometry x="440" y="860" width="100" height="50" as="geometry" />
        </mxCell>
        <mxCell id="ibAcx1b-cuIIom6eMJPG-41" value="parno&lt;div&gt;(부모글번호)&lt;/div&gt;" style="ellipse;whiteSpace=wrap;html=1;" vertex="1" parent="1">
          <mxGeometry x="683.5" y="860" width="100" height="50" as="geometry" />
        </mxCell>
        <mxCell id="ibAcx1b-cuIIom6eMJPG-42" value="plevel&lt;div&gt;(글 종류)&lt;/div&gt;" style="ellipse;whiteSpace=wrap;html=1;" vertex="1" parent="1">
          <mxGeometry x="560" y="860" width="100" height="50" as="geometry" />
        </mxCell>
        <mxCell id="ibAcx1b-cuIIom6eMJPG-43" value="title&lt;div&gt;(글제목)&lt;/div&gt;" style="ellipse;whiteSpace=wrap;html=1;" vertex="1" parent="1">
          <mxGeometry x="810" y="860" width="100" height="50" as="geometry" />
        </mxCell>
        <mxCell id="ibAcx1b-cuIIom6eMJPG-44" value="visited&lt;div&gt;(읽은횟수)&lt;/div&gt;" style="ellipse;whiteSpace=wrap;html=1;" vertex="1" parent="1">
          <mxGeometry x="1170" y="860" width="100" height="50" as="geometry" />
        </mxCell>
        <mxCell id="ibAcx1b-cuIIom6eMJPG-45" value="resdata&lt;div&gt;(작성일시)&lt;/div&gt;" style="ellipse;whiteSpace=wrap;html=1;" vertex="1" parent="1">
          <mxGeometry x="1050" y="860" width="100" height="50" as="geometry" />
        </mxCell>
        <mxCell id="ibAcx1b-cuIIom6eMJPG-46" value="&lt;font color=&quot;#0000ff&quot;&gt;aid&lt;/font&gt;&lt;div&gt;&lt;font color=&quot;#0000ff&quot;&gt;(작성자)&lt;/font&gt;&lt;/div&gt;" style="ellipse;whiteSpace=wrap;html=1;" vertex="1" parent="1">
          <mxGeometry x="1290" y="860" width="100" height="50" as="geometry" />
        </mxCell>
        <mxCell id="ibAcx1b-cuIIom6eMJPG-47" value="content&lt;div&gt;(글내용)&lt;/div&gt;" style="ellipse;whiteSpace=wrap;html=1;" vertex="1" parent="1">
          <mxGeometry x="930" y="860" width="100" height="50" as="geometry" />
        </mxCell>
        <mxCell id="ibAcx1b-cuIIom6eMJPG-48" value="" style="endArrow=classic;html=1;rounded=0;exitX=0.5;exitY=1;exitDx=0;exitDy=0;entryX=0.5;entryY=0;entryDx=0;entryDy=0;" edge="1" parent="1" source="ibAcx1b-cuIIom6eMJPG-39" target="ibAcx1b-cuIIom6eMJPG-40">
          <mxGeometry width="50" height="50" relative="1" as="geometry">
            <mxPoint x="665" y="790" as="sourcePoint" />
            <mxPoint x="715" y="740" as="targetPoint" />
          </mxGeometry>
        </mxCell>
        <mxCell id="ibAcx1b-cuIIom6eMJPG-49" value="" style="endArrow=classic;html=1;rounded=0;exitX=0.5;exitY=1;exitDx=0;exitDy=0;entryX=0.5;entryY=0;entryDx=0;entryDy=0;" edge="1" parent="1" source="ibAcx1b-cuIIom6eMJPG-39" target="ibAcx1b-cuIIom6eMJPG-42">
          <mxGeometry width="50" height="50" relative="1" as="geometry">
            <mxPoint x="665" y="800" as="sourcePoint" />
            <mxPoint x="715" y="750" as="targetPoint" />
          </mxGeometry>
        </mxCell>
        <mxCell id="ibAcx1b-cuIIom6eMJPG-50" value="" style="endArrow=classic;html=1;rounded=0;entryX=0.5;entryY=0;entryDx=0;entryDy=0;" edge="1" parent="1" target="ibAcx1b-cuIIom6eMJPG-41">
          <mxGeometry width="50" height="50" relative="1" as="geometry">
            <mxPoint x="915" y="820" as="sourcePoint" />
            <mxPoint x="605" y="740" as="targetPoint" />
          </mxGeometry>
        </mxCell>
        <mxCell id="ibAcx1b-cuIIom6eMJPG-51" value="" style="endArrow=classic;html=1;rounded=0;entryX=0.5;entryY=0;entryDx=0;entryDy=0;" edge="1" parent="1" target="ibAcx1b-cuIIom6eMJPG-43">
          <mxGeometry width="50" height="50" relative="1" as="geometry">
            <mxPoint x="915" y="820" as="sourcePoint" />
            <mxPoint x="665" y="710" as="targetPoint" />
          </mxGeometry>
        </mxCell>
        <mxCell id="ibAcx1b-cuIIom6eMJPG-52" value="" style="endArrow=classic;html=1;rounded=0;exitX=0.5;exitY=1;exitDx=0;exitDy=0;entryX=0.5;entryY=0;entryDx=0;entryDy=0;" edge="1" parent="1" source="ibAcx1b-cuIIom6eMJPG-39" target="ibAcx1b-cuIIom6eMJPG-47">
          <mxGeometry width="50" height="50" relative="1" as="geometry">
            <mxPoint x="645" y="800" as="sourcePoint" />
            <mxPoint x="695" y="750" as="targetPoint" />
          </mxGeometry>
        </mxCell>
        <mxCell id="ibAcx1b-cuIIom6eMJPG-53" value="" style="endArrow=classic;html=1;rounded=0;exitX=0.5;exitY=1;exitDx=0;exitDy=0;entryX=0.5;entryY=0;entryDx=0;entryDy=0;" edge="1" parent="1" source="ibAcx1b-cuIIom6eMJPG-39" target="ibAcx1b-cuIIom6eMJPG-45">
          <mxGeometry width="50" height="50" relative="1" as="geometry">
            <mxPoint x="575" y="780" as="sourcePoint" />
            <mxPoint x="625" y="730" as="targetPoint" />
          </mxGeometry>
        </mxCell>
        <mxCell id="ibAcx1b-cuIIom6eMJPG-54" value="" style="endArrow=classic;html=1;rounded=0;exitX=0.5;exitY=1;exitDx=0;exitDy=0;entryX=0.5;entryY=0;entryDx=0;entryDy=0;" edge="1" parent="1" source="ibAcx1b-cuIIom6eMJPG-39" target="ibAcx1b-cuIIom6eMJPG-44">
          <mxGeometry width="50" height="50" relative="1" as="geometry">
            <mxPoint x="595" y="730" as="sourcePoint" />
            <mxPoint x="645" y="680" as="targetPoint" />
          </mxGeometry>
        </mxCell>
        <mxCell id="ibAcx1b-cuIIom6eMJPG-55" value="" style="endArrow=classic;html=1;rounded=0;exitX=0.5;exitY=1;exitDx=0;exitDy=0;entryX=0.5;entryY=0;entryDx=0;entryDy=0;" edge="1" parent="1" source="ibAcx1b-cuIIom6eMJPG-39" target="ibAcx1b-cuIIom6eMJPG-46">
          <mxGeometry width="50" height="50" relative="1" as="geometry">
            <mxPoint x="565" y="780" as="sourcePoint" />
            <mxPoint x="615" y="730" as="targetPoint" />
          </mxGeometry>
        </mxCell>
        <mxCell id="ibAcx1b-cuIIom6eMJPG-56" value="&lt;span style=&quot;font-size: 16px;&quot;&gt;&lt;b&gt;data&lt;/b&gt;&lt;/span&gt;&lt;div&gt;&lt;span style=&quot;font-size: 16px;&quot;&gt;&lt;b&gt;(자료실)&lt;/b&gt;&lt;/span&gt;&lt;/div&gt;" style="rounded=0;whiteSpace=wrap;html=1;" vertex="1" parent="1">
          <mxGeometry x="854" y="335" width="120" height="60" as="geometry" />
        </mxCell>
        <mxCell id="ibAcx1b-cuIIom6eMJPG-57" value="&lt;u&gt;&lt;font color=&quot;#ff3333&quot;&gt;no&lt;/font&gt;&lt;/u&gt;&lt;div&gt;&lt;u&gt;&lt;font color=&quot;#ff3333&quot;&gt;(글번호)&lt;/font&gt;&lt;/u&gt;&lt;/div&gt;" style="ellipse;whiteSpace=wrap;html=1;" vertex="1" parent="1">
          <mxGeometry x="554" y="425" width="100" height="50" as="geometry" />
        </mxCell>
        <mxCell id="ibAcx1b-cuIIom6eMJPG-58" value="title&lt;div&gt;(글제목)&lt;/div&gt;" style="ellipse;whiteSpace=wrap;html=1;" vertex="1" parent="1">
          <mxGeometry x="674" y="425" width="100" height="50" as="geometry" />
        </mxCell>
        <mxCell id="ibAcx1b-cuIIom6eMJPG-59" value="content&lt;div&gt;(글내용)&lt;/div&gt;" style="ellipse;whiteSpace=wrap;html=1;" vertex="1" parent="1">
          <mxGeometry x="797.5" y="425" width="100" height="50" as="geometry" />
        </mxCell>
        <mxCell id="ibAcx1b-cuIIom6eMJPG-60" value="resdate&lt;div&gt;(작성일시)&lt;/div&gt;" style="ellipse;whiteSpace=wrap;html=1;" vertex="1" parent="1">
          <mxGeometry x="1044" y="425" width="100" height="50" as="geometry" />
        </mxCell>
        <mxCell id="ibAcx1b-cuIIom6eMJPG-61" value="visited&lt;div&gt;(읽은횟수)&lt;/div&gt;" style="ellipse;whiteSpace=wrap;html=1;" vertex="1" parent="1">
          <mxGeometry x="1174" y="425" width="100" height="50" as="geometry" />
        </mxCell>
        <mxCell id="ibAcx1b-cuIIom6eMJPG-62" value="datafile&lt;div&gt;(자료파일)&lt;/div&gt;" style="ellipse;whiteSpace=wrap;html=1;" vertex="1" parent="1">
          <mxGeometry x="924" y="425" width="100" height="50" as="geometry" />
        </mxCell>
        <mxCell id="ibAcx1b-cuIIom6eMJPG-63" value="" style="endArrow=classic;html=1;rounded=0;exitX=0.5;exitY=1;exitDx=0;exitDy=0;entryX=0.5;entryY=0;entryDx=0;entryDy=0;" edge="1" parent="1" source="ibAcx1b-cuIIom6eMJPG-56" target="ibAcx1b-cuIIom6eMJPG-57">
          <mxGeometry width="50" height="50" relative="1" as="geometry">
            <mxPoint x="684" y="385" as="sourcePoint" />
            <mxPoint x="734" y="335" as="targetPoint" />
          </mxGeometry>
        </mxCell>
        <mxCell id="ibAcx1b-cuIIom6eMJPG-64" value="" style="endArrow=classic;html=1;rounded=0;exitX=0.5;exitY=1;exitDx=0;exitDy=0;entryX=0.5;entryY=0;entryDx=0;entryDy=0;" edge="1" parent="1" source="ibAcx1b-cuIIom6eMJPG-56" target="ibAcx1b-cuIIom6eMJPG-58">
          <mxGeometry width="50" height="50" relative="1" as="geometry">
            <mxPoint x="684" y="375" as="sourcePoint" />
            <mxPoint x="734" y="325" as="targetPoint" />
          </mxGeometry>
        </mxCell>
        <mxCell id="ibAcx1b-cuIIom6eMJPG-65" value="" style="endArrow=classic;html=1;rounded=0;exitX=0.5;exitY=1;exitDx=0;exitDy=0;entryX=0.5;entryY=0;entryDx=0;entryDy=0;" edge="1" parent="1" source="ibAcx1b-cuIIom6eMJPG-56" target="ibAcx1b-cuIIom6eMJPG-59">
          <mxGeometry width="50" height="50" relative="1" as="geometry">
            <mxPoint x="644" y="385" as="sourcePoint" />
            <mxPoint x="694" y="335" as="targetPoint" />
          </mxGeometry>
        </mxCell>
        <mxCell id="ibAcx1b-cuIIom6eMJPG-66" value="" style="endArrow=classic;html=1;rounded=0;exitX=0.5;exitY=1;exitDx=0;exitDy=0;entryX=0.5;entryY=0;entryDx=0;entryDy=0;" edge="1" parent="1" source="ibAcx1b-cuIIom6eMJPG-56" target="ibAcx1b-cuIIom6eMJPG-62">
          <mxGeometry width="50" height="50" relative="1" as="geometry">
            <mxPoint x="654" y="355" as="sourcePoint" />
            <mxPoint x="704" y="305" as="targetPoint" />
          </mxGeometry>
        </mxCell>
        <mxCell id="ibAcx1b-cuIIom6eMJPG-67" value="" style="endArrow=classic;html=1;rounded=0;exitX=0.5;exitY=1;exitDx=0;exitDy=0;entryX=0.5;entryY=0;entryDx=0;entryDy=0;" edge="1" parent="1" source="ibAcx1b-cuIIom6eMJPG-56" target="ibAcx1b-cuIIom6eMJPG-60">
          <mxGeometry width="50" height="50" relative="1" as="geometry">
            <mxPoint x="694" y="365" as="sourcePoint" />
            <mxPoint x="744" y="315" as="targetPoint" />
          </mxGeometry>
        </mxCell>
        <mxCell id="ibAcx1b-cuIIom6eMJPG-68" value="" style="endArrow=classic;html=1;rounded=0;exitX=0.5;exitY=1;exitDx=0;exitDy=0;entryX=0.5;entryY=0;entryDx=0;entryDy=0;" edge="1" parent="1" source="ibAcx1b-cuIIom6eMJPG-56" target="ibAcx1b-cuIIom6eMJPG-61">
          <mxGeometry width="50" height="50" relative="1" as="geometry">
            <mxPoint x="734" y="345" as="sourcePoint" />
            <mxPoint x="784" y="295" as="targetPoint" />
          </mxGeometry>
        </mxCell>
        <mxCell id="ibAcx1b-cuIIom6eMJPG-69" value="&lt;span style=&quot;font-size: 16px;&quot;&gt;&lt;b&gt;member&lt;/b&gt;&lt;/span&gt;&lt;div&gt;&lt;span style=&quot;font-size: 16px;&quot;&gt;&lt;b&gt;(멤버)&lt;/b&gt;&lt;/span&gt;&lt;/div&gt;" style="rounded=0;whiteSpace=wrap;html=1;" vertex="1" parent="1">
          <mxGeometry x="-52" y="755" width="120" height="60" as="geometry" />
        </mxCell>
        <mxCell id="ibAcx1b-cuIIom6eMJPG-70" value="&lt;font color=&quot;#ff0000&quot;&gt;&lt;u&gt;id&lt;/u&gt;&lt;/font&gt;&lt;br&gt;&lt;div&gt;&lt;u&gt;&lt;font color=&quot;#ff0000&quot;&gt;(작성자)&lt;/font&gt;&lt;/u&gt;&lt;/div&gt;" style="ellipse;whiteSpace=wrap;html=1;" vertex="1" parent="1">
          <mxGeometry x="-286" y="860" width="100" height="50" as="geometry" />
        </mxCell>
        <mxCell id="ibAcx1b-cuIIom6eMJPG-71" value="pw&lt;div&gt;(비밀번호)&lt;/div&gt;" style="ellipse;whiteSpace=wrap;html=1;" vertex="1" parent="1">
          <mxGeometry x="-166" y="860" width="100" height="50" as="geometry" />
        </mxCell>
        <mxCell id="ibAcx1b-cuIIom6eMJPG-72" value="name&lt;div&gt;(이름)&lt;/div&gt;" style="ellipse;whiteSpace=wrap;html=1;" vertex="1" parent="1">
          <mxGeometry x="-42.5" y="860" width="100" height="50" as="geometry" />
        </mxCell>
        <mxCell id="ibAcx1b-cuIIom6eMJPG-73" value="email&lt;div&gt;(이메일)&lt;/div&gt;" style="ellipse;whiteSpace=wrap;html=1;" vertex="1" parent="1">
          <mxGeometry x="84" y="860" width="100" height="50" as="geometry" />
        </mxCell>
        <mxCell id="ibAcx1b-cuIIom6eMJPG-74" value="tel&lt;div&gt;(전화번호)&lt;/div&gt;" style="ellipse;whiteSpace=wrap;html=1;" vertex="1" parent="1">
          <mxGeometry x="214" y="860" width="100" height="50" as="geometry" />
        </mxCell>
        <mxCell id="ibAcx1b-cuIIom6eMJPG-75" value="" style="endArrow=classic;html=1;rounded=0;exitX=0.5;exitY=1;exitDx=0;exitDy=0;entryX=0.5;entryY=0;entryDx=0;entryDy=0;" edge="1" parent="1" source="ibAcx1b-cuIIom6eMJPG-69" target="ibAcx1b-cuIIom6eMJPG-70">
          <mxGeometry width="50" height="50" relative="1" as="geometry">
            <mxPoint x="-186" y="795" as="sourcePoint" />
            <mxPoint x="-136" y="745" as="targetPoint" />
          </mxGeometry>
        </mxCell>
        <mxCell id="ibAcx1b-cuIIom6eMJPG-76" value="" style="endArrow=classic;html=1;rounded=0;exitX=0.5;exitY=1;exitDx=0;exitDy=0;entryX=0.5;entryY=0;entryDx=0;entryDy=0;" edge="1" parent="1" source="ibAcx1b-cuIIom6eMJPG-69" target="ibAcx1b-cuIIom6eMJPG-71">
          <mxGeometry width="50" height="50" relative="1" as="geometry">
            <mxPoint x="-226" y="775" as="sourcePoint" />
            <mxPoint x="-176" y="725" as="targetPoint" />
          </mxGeometry>
        </mxCell>
        <mxCell id="ibAcx1b-cuIIom6eMJPG-77" value="" style="endArrow=classic;html=1;rounded=0;exitX=0.5;exitY=1;exitDx=0;exitDy=0;entryX=0.5;entryY=0;entryDx=0;entryDy=0;" edge="1" parent="1" source="ibAcx1b-cuIIom6eMJPG-69" target="ibAcx1b-cuIIom6eMJPG-72">
          <mxGeometry width="50" height="50" relative="1" as="geometry">
            <mxPoint x="-116" y="795" as="sourcePoint" />
            <mxPoint x="-66" y="745" as="targetPoint" />
          </mxGeometry>
        </mxCell>
        <mxCell id="ibAcx1b-cuIIom6eMJPG-78" value="" style="endArrow=classic;html=1;rounded=0;exitX=0.5;exitY=1;exitDx=0;exitDy=0;entryX=0.5;entryY=0;entryDx=0;entryDy=0;" edge="1" parent="1" source="ibAcx1b-cuIIom6eMJPG-69" target="ibAcx1b-cuIIom6eMJPG-73">
          <mxGeometry width="50" height="50" relative="1" as="geometry">
            <mxPoint x="-156" y="765" as="sourcePoint" />
            <mxPoint x="-106" y="715" as="targetPoint" />
          </mxGeometry>
        </mxCell>
        <mxCell id="ibAcx1b-cuIIom6eMJPG-79" value="" style="endArrow=classic;html=1;rounded=0;exitX=0.5;exitY=1;exitDx=0;exitDy=0;entryX=0.5;entryY=0;entryDx=0;entryDy=0;" edge="1" parent="1" source="ibAcx1b-cuIIom6eMJPG-69" target="ibAcx1b-cuIIom6eMJPG-74">
          <mxGeometry width="50" height="50" relative="1" as="geometry">
            <mxPoint x="-176" y="785" as="sourcePoint" />
            <mxPoint x="-126" y="735" as="targetPoint" />
          </mxGeometry>
        </mxCell>
        <mxCell id="ibAcx1b-cuIIom6eMJPG-80" value="&lt;b&gt;&lt;font color=&quot;#0000ff&quot; style=&quot;font-size: 15px;&quot;&gt;글 등록&lt;/font&gt;&lt;/b&gt;" style="rhombus;whiteSpace=wrap;html=1;" vertex="1" parent="1">
          <mxGeometry x="290" y="585" width="170" height="60" as="geometry" />
        </mxCell>
        <mxCell id="ibAcx1b-cuIIom6eMJPG-81" value="" style="endArrow=classic;html=1;rounded=0;exitX=0.5;exitY=0;exitDx=0;exitDy=0;entryX=0;entryY=0.5;entryDx=0;entryDy=0;" edge="1" parent="1" source="ibAcx1b-cuIIom6eMJPG-69" target="ibAcx1b-cuIIom6eMJPG-80">
          <mxGeometry width="50" height="50" relative="1" as="geometry">
            <mxPoint x="18" y="695" as="sourcePoint" />
            <mxPoint x="10" y="610" as="targetPoint" />
            <Array as="points">
              <mxPoint x="10" y="615" />
            </Array>
          </mxGeometry>
        </mxCell>
        <mxCell id="ibAcx1b-cuIIom6eMJPG-82" value="" style="endArrow=classic;html=1;rounded=0;exitX=0.5;exitY=0;exitDx=0;exitDy=0;entryX=1;entryY=0.5;entryDx=0;entryDy=0;" edge="1" parent="1" source="ibAcx1b-cuIIom6eMJPG-39" target="ibAcx1b-cuIIom6eMJPG-80">
          <mxGeometry width="50" height="50" relative="1" as="geometry">
            <mxPoint x="320" y="790" as="sourcePoint" />
            <mxPoint x="370" y="740" as="targetPoint" />
            <Array as="points">
              <mxPoint x="914" y="620" />
            </Array>
          </mxGeometry>
        </mxCell>
        <mxCell id="ibAcx1b-cuIIom6eMJPG-83" value="&lt;b&gt;&lt;font style=&quot;font-size: 20px;&quot;&gt;1&lt;/font&gt;&lt;/b&gt;" style="text;html=1;align=center;verticalAlign=middle;whiteSpace=wrap;rounded=0;" vertex="1" parent="1">
          <mxGeometry x="217" y="560" width="66" height="50" as="geometry" />
        </mxCell>
        <mxCell id="ibAcx1b-cuIIom6eMJPG-85" value="&lt;b style=&quot;&quot;&gt;&lt;font style=&quot;font-size: 40px;&quot;&gt;∞&lt;/font&gt;&lt;/b&gt;" style="text;html=1;align=center;verticalAlign=middle;whiteSpace=wrap;rounded=0;" vertex="1" parent="1">
          <mxGeometry x="474" y="560" width="66" height="50" as="geometry" />
        </mxCell>
        <mxCell id="ibAcx1b-cuIIom6eMJPG-86" value="&lt;font color=&quot;#ff0000&quot; style=&quot;font-size: 14px;&quot;&gt;id&lt;/font&gt;" style="text;html=1;align=center;verticalAlign=middle;whiteSpace=wrap;rounded=0;" vertex="1" parent="1">
          <mxGeometry x="223" y="630" width="60" height="30" as="geometry" />
        </mxCell>
        <mxCell id="ibAcx1b-cuIIom6eMJPG-87" value="&lt;font color=&quot;#0000ff&quot; style=&quot;font-size: 14px;&quot;&gt;aid&lt;/font&gt;" style="text;html=1;align=center;verticalAlign=middle;whiteSpace=wrap;rounded=0;" vertex="1" parent="1">
          <mxGeometry x="477" y="630" width="60" height="30" as="geometry" />
        </mxCell>
      </root>
    </mxGraphModel>
  </diagram>
</mxfile>
